<svg xmlns="http://www.w3.org/2000/svg" width="48" height="48" fill="none"><path fill="#fff" fill-opacity=".296" fill-rule="evenodd" d="M1 24c0 12.703 10.297 23 23 23s23-10.297 23-23S36.703 1 24 1 1 11.297 1 24ZM24 0C10.745 0 0 10.745 0 24s10.745 24 24 24 24-10.745 24-24S37.255 0 24 0Z" clip-rule="evenodd"/><path fill="#fff" fill-rule="evenodd" d="M17 24a.5.5 0 0 1 .5-.5h11.793l-3.147-3.146a.5.5 0 0 1 .708-.708l4 4a.5.5 0 0 1 0 .708l-4 4a.5.5 0 0 1-.708-.708l3.147-3.146H17.5a.5.5 0 0 1-.5-.5Z" clip-rule="evenodd"/></svg>